<?xml version="1.0" encoding="UTF-8" standalone="no"?>
<!DOCTYPE svg PUBLIC "-//W3C//DTD SVG 1.1//EN"
 "http://www.w3.org/Graphics/SVG/1.1/DTD/svg11.dtd">
<!-- Generated by graphviz version 5.0.0 (20220707.1540)
 -->
<!-- Title: dependencies Pages: 1 -->
<svg width="472pt" height="174pt"
 viewBox="0.00 0.00 472.00 173.80" xmlns="http://www.w3.org/2000/svg" xmlns:xlink="http://www.w3.org/1999/xlink">
<g id="graph0" class="graph" transform="scale(1 1) rotate(0) translate(4 169.8)">
<title>dependencies</title>
<polygon fill="white" stroke="transparent" points="-4,4 -4,-169.8 468,-169.8 468,4 -4,4"/>
<text text-anchor="middle" x="232" y="-8.2" font-family="sans-serif" font-size="14.00">dependencies</text>
<g id="clust1" class="cluster">
<title>cluster_MangaByProviderModule</title>
<polygon fill="none" stroke="black" stroke-dasharray="1,5" points="8,-32.8 8,-157.8 456,-157.8 456,-32.8 8,-32.8"/>
</g>
<g id="clust4" class="cluster">
<title>cluster_MangaByProviderModule_imports</title>
<polygon fill="none" stroke="black" points="224,-40.8 224,-92.8 448,-92.8 448,-40.8 224,-40.8"/>
</g>
<g id="clust2" class="cluster">
<title>cluster_MangaByProviderModule_declarations</title>
<polygon fill="none" stroke="black" points="16,-40.8 16,-92.8 216,-92.8 216,-40.8 16,-40.8"/>
</g>
<!-- MangaByProviderComponent -->
<g id="node1" class="node">
<title>MangaByProviderComponent</title>
<polygon fill="#ffffb3" stroke="black" points="208.26,-84.8 23.74,-84.8 23.74,-48.8 208.26,-48.8 208.26,-84.8"/>
<text text-anchor="middle" x="116" y="-62.6" font-family="Times,serif" font-size="14.00">MangaByProviderComponent</text>
</g>
<!-- MangaByProviderModule -->
<g id="node2" class="node">
<title>MangaByProviderModule</title>
<polygon fill="#8dd3c7" stroke="black" points="307.48,-149.8 304.48,-153.8 283.48,-153.8 280.48,-149.8 144.52,-149.8 144.52,-113.8 307.48,-113.8 307.48,-149.8"/>
<text text-anchor="middle" x="226" y="-127.6" font-family="Times,serif" font-size="14.00">MangaByProviderModule</text>
</g>
<!-- MangaByProviderComponent&#45;&gt;MangaByProviderModule -->
<g id="edge1" class="edge">
<title>MangaByProviderComponent&#45;&gt;MangaByProviderModule</title>
<path fill="none" stroke="black" d="M176.44,-84.91C176.44,-84.91 176.44,-103.79 176.44,-103.79"/>
<polygon fill="black" stroke="black" points="172.94,-103.79 176.44,-113.79 179.94,-103.79 172.94,-103.79"/>
</g>
<!-- MangaByProviderRoutingModule -->
<g id="node3" class="node">
<title>MangaByProviderRoutingModule</title>
<polygon fill="#8dd3c7" stroke="black" points="440.1,-84.8 437.1,-88.8 416.1,-88.8 413.1,-84.8 231.9,-84.8 231.9,-48.8 440.1,-48.8 440.1,-84.8"/>
<text text-anchor="middle" x="336" y="-62.6" font-family="Times,serif" font-size="14.00">MangaByProviderRoutingModule</text>
</g>
<!-- MangaByProviderRoutingModule&#45;&gt;MangaByProviderModule -->
<g id="edge2" class="edge">
<title>MangaByProviderRoutingModule&#45;&gt;MangaByProviderModule</title>
<path fill="none" stroke="black" d="M269.72,-84.91C269.72,-84.91 269.72,-103.79 269.72,-103.79"/>
<polygon fill="black" stroke="black" points="266.22,-103.79 269.72,-113.79 273.22,-103.79 266.22,-103.79"/>
</g>
</g>
</svg>
