<?xml version="1.0" encoding="UTF-8" standalone="no"?>
<!DOCTYPE svg PUBLIC "-//W3C//DTD SVG 1.1//EN"
 "http://www.w3.org/Graphics/SVG/1.1/DTD/svg11.dtd">
<!-- Generated by graphviz version 5.0.0 (20220707.1540)
 -->
<!-- Title: dependencies Pages: 1 -->
<svg width="569pt" height="174pt"
 viewBox="0.00 0.00 569.00 173.80" xmlns="http://www.w3.org/2000/svg" xmlns:xlink="http://www.w3.org/1999/xlink">
<g id="graph0" class="graph" transform="scale(1 1) rotate(0) translate(4 169.8)">
<title>dependencies</title>
<polygon fill="white" stroke="transparent" points="-4,4 -4,-169.8 565,-169.8 565,4 -4,4"/>
<text text-anchor="middle" x="280.5" y="-8.2" font-family="sans-serif" font-size="14.00">dependencies</text>
<g id="clust1" class="cluster">
<title>cluster_ChaptersModule</title>
<polygon fill="none" stroke="black" stroke-dasharray="1,5" points="8,-32.8 8,-157.8 553,-157.8 553,-32.8 8,-32.8"/>
</g>
<g id="clust5" class="cluster">
<title>cluster_ChaptersModule_imports</title>
<polygon fill="none" stroke="black" points="375,-40.8 375,-92.8 545,-92.8 545,-40.8 375,-40.8"/>
</g>
<g id="clust2" class="cluster">
<title>cluster_ChaptersModule_declarations</title>
<polygon fill="none" stroke="black" points="16,-40.8 16,-92.8 367,-92.8 367,-40.8 16,-40.8"/>
</g>
<!-- ChaptersComponent -->
<g id="node1" class="node">
<title>ChaptersComponent</title>
<polygon fill="#ffffb3" stroke="black" points="358.6,-84.8 227.4,-84.8 227.4,-48.8 358.6,-48.8 358.6,-84.8"/>
<text text-anchor="middle" x="293" y="-62.6" font-family="Times,serif" font-size="14.00">ChaptersComponent</text>
</g>
<!-- ChaptersModule -->
<g id="node3" class="node">
<title>ChaptersModule</title>
<polygon fill="#8dd3c7" stroke="black" points="347.82,-149.8 344.82,-153.8 323.82,-153.8 320.82,-149.8 238.18,-149.8 238.18,-113.8 347.82,-113.8 347.82,-149.8"/>
<text text-anchor="middle" x="293" y="-127.6" font-family="Times,serif" font-size="14.00">ChaptersModule</text>
</g>
<!-- ChaptersComponent&#45;&gt;ChaptersModule -->
<g id="edge1" class="edge">
<title>ChaptersComponent&#45;&gt;ChaptersModule</title>
<path fill="none" stroke="black" d="M293,-84.91C293,-84.91 293,-103.79 293,-103.79"/>
<polygon fill="black" stroke="black" points="289.5,-103.79 293,-113.79 296.5,-103.79 289.5,-103.79"/>
</g>
<!-- ReadMangaModalComponent -->
<g id="node2" class="node">
<title>ReadMangaModalComponent</title>
<polygon fill="#ffffb3" stroke="black" points="209.53,-84.8 24.47,-84.8 24.47,-48.8 209.53,-48.8 209.53,-84.8"/>
<text text-anchor="middle" x="117" y="-62.6" font-family="Times,serif" font-size="14.00">ReadMangaModalComponent</text>
</g>
<!-- ReadMangaModalComponent&#45;&gt;ChaptersModule -->
<g id="edge2" class="edge">
<title>ReadMangaModalComponent&#45;&gt;ChaptersModule</title>
<path fill="none" stroke="black" d="M117,-84.91C117,-104.14 117,-131.8 117,-131.8 117,-131.8 228.28,-131.8 228.28,-131.8"/>
<polygon fill="black" stroke="black" points="228.28,-135.3 238.28,-131.8 228.28,-128.3 228.28,-135.3"/>
</g>
<!-- ChaptersRoutingModule -->
<g id="node4" class="node">
<title>ChaptersRoutingModule</title>
<polygon fill="#8dd3c7" stroke="black" points="537.44,-84.8 534.44,-88.8 513.44,-88.8 510.44,-84.8 382.56,-84.8 382.56,-48.8 537.44,-48.8 537.44,-84.8"/>
<text text-anchor="middle" x="460" y="-62.6" font-family="Times,serif" font-size="14.00">ChaptersRoutingModule</text>
</g>
<!-- ChaptersRoutingModule&#45;&gt;ChaptersModule -->
<g id="edge3" class="edge">
<title>ChaptersRoutingModule&#45;&gt;ChaptersModule</title>
<path fill="none" stroke="black" d="M460,-84.91C460,-104.14 460,-131.8 460,-131.8 460,-131.8 357.68,-131.8 357.68,-131.8"/>
<polygon fill="black" stroke="black" points="357.68,-128.3 347.68,-131.8 357.68,-135.3 357.68,-128.3"/>
</g>
</g>
</svg>
