<?xml version="1.0" encoding="UTF-8" standalone="no"?>
<!DOCTYPE svg PUBLIC "-//W3C//DTD SVG 1.1//EN"
 "http://www.w3.org/Graphics/SVG/1.1/DTD/svg11.dtd">
<!-- Generated by graphviz version 5.0.0 (20220707.1540)
 -->
<!-- Title: dependencies Pages: 1 -->
<svg width="470pt" height="247pt"
 viewBox="0.00 0.00 470.00 246.80" xmlns="http://www.w3.org/2000/svg" xmlns:xlink="http://www.w3.org/1999/xlink">
<g id="graph0" class="graph" transform="scale(1 1) rotate(0) translate(4 242.8)">
<title>dependencies</title>
<polygon fill="white" stroke="transparent" points="-4,4 -4,-242.8 466,-242.8 466,4 -4,4"/>
<text text-anchor="middle" x="231" y="-8.2" font-family="sans-serif" font-size="14.00">dependencies</text>
<g id="clust1" class="cluster">
<title>cluster_ComponentsModule</title>
<polygon fill="none" stroke="black" stroke-dasharray="1,5" points="8,-32.8 8,-230.8 454,-230.8 454,-32.8 8,-32.8"/>
</g>
<g id="clust7" class="cluster">
<title>cluster_ComponentsModule_exports</title>
<polygon fill="none" stroke="black" points="16,-170.8 16,-222.8 446,-222.8 446,-170.8 16,-170.8"/>
</g>
<g id="clust2" class="cluster">
<title>cluster_ComponentsModule_declarations</title>
<polygon fill="none" stroke="black" points="21,-40.8 21,-92.8 441,-92.8 441,-40.8 21,-40.8"/>
</g>
<!-- FooterComponent -->
<g id="node1" class="node">
<title>FooterComponent</title>
<polygon fill="#ffffb3" stroke="black" points="432.88,-84.8 315.12,-84.8 315.12,-48.8 432.88,-48.8 432.88,-84.8"/>
<text text-anchor="middle" x="374" y="-62.6" font-family="Times,serif" font-size="14.00">FooterComponent</text>
</g>
<!-- ComponentsModule -->
<g id="node4" class="node">
<title>ComponentsModule</title>
<polygon fill="#8dd3c7" stroke="black" points="301.33,-149.8 298.33,-153.8 277.33,-153.8 274.33,-149.8 170.67,-149.8 170.67,-113.8 301.33,-113.8 301.33,-149.8"/>
<text text-anchor="middle" x="236" y="-127.6" font-family="Times,serif" font-size="14.00">ComponentsModule</text>
</g>
<!-- FooterComponent&#45;&gt;ComponentsModule -->
<g id="edge1" class="edge">
<title>FooterComponent&#45;&gt;ComponentsModule</title>
<path fill="none" stroke="black" d="M394.06,-84.82C394.06,-102.17 394.06,-125.8 394.06,-125.8 394.06,-125.8 311.2,-125.8 311.2,-125.8"/>
<polygon fill="black" stroke="black" points="311.2,-122.3 301.2,-125.8 311.2,-129.3 311.2,-122.3"/>
</g>
<!-- HeaderComponent -->
<g id="node2" class="node">
<title>HeaderComponent</title>
<polygon fill="#ffffb3" stroke="black" points="296.75,-84.8 175.25,-84.8 175.25,-48.8 296.75,-48.8 296.75,-84.8"/>
<text text-anchor="middle" x="236" y="-62.6" font-family="Times,serif" font-size="14.00">HeaderComponent</text>
</g>
<!-- HeaderComponent&#45;&gt;ComponentsModule -->
<g id="edge2" class="edge">
<title>HeaderComponent&#45;&gt;ComponentsModule</title>
<path fill="none" stroke="black" d="M236,-84.91C236,-84.91 236,-103.79 236,-103.79"/>
<polygon fill="black" stroke="black" points="232.5,-103.79 236,-113.79 239.5,-103.79 232.5,-103.79"/>
</g>
<!-- LoadingComponent -->
<g id="node3" class="node">
<title>LoadingComponent</title>
<polygon fill="#ffffb3" stroke="black" points="156.99,-84.8 29.01,-84.8 29.01,-48.8 156.99,-48.8 156.99,-84.8"/>
<text text-anchor="middle" x="93" y="-62.6" font-family="Times,serif" font-size="14.00">LoadingComponent</text>
</g>
<!-- LoadingComponent&#45;&gt;ComponentsModule -->
<g id="edge3" class="edge">
<title>LoadingComponent&#45;&gt;ComponentsModule</title>
<path fill="none" stroke="black" d="M113.5,-84.82C113.5,-102.17 113.5,-125.8 113.5,-125.8 113.5,-125.8 160.8,-125.8 160.8,-125.8"/>
<polygon fill="black" stroke="black" points="160.8,-129.3 170.8,-125.8 160.8,-122.3 160.8,-129.3"/>
</g>
<!-- FooterComponent  -->
<g id="node5" class="node">
<title>FooterComponent </title>
<polygon fill="#fb8072" stroke="black" points="437.88,-214.8 316.12,-214.8 316.12,-178.8 437.88,-178.8 437.88,-214.8"/>
<text text-anchor="middle" x="377" y="-192.6" font-family="Times,serif" font-size="14.00">FooterComponent </text>
</g>
<!-- ComponentsModule&#45;&gt;FooterComponent  -->
<g id="edge4" class="edge">
<title>ComponentsModule&#45;&gt;FooterComponent </title>
<path fill="none" stroke="black" stroke-dasharray="5,2" d="M301.17,-137.8C329,-137.8 355.19,-137.8 355.19,-137.8 355.19,-137.8 355.19,-168.78 355.19,-168.78"/>
<polygon fill="black" stroke="black" points="351.69,-168.78 355.19,-178.78 358.69,-168.78 351.69,-168.78"/>
</g>
<!-- HeaderComponent  -->
<g id="node6" class="node">
<title>HeaderComponent </title>
<polygon fill="#fb8072" stroke="black" points="298.75,-214.8 173.25,-214.8 173.25,-178.8 298.75,-178.8 298.75,-214.8"/>
<text text-anchor="middle" x="236" y="-192.6" font-family="Times,serif" font-size="14.00">HeaderComponent </text>
</g>
<!-- ComponentsModule&#45;&gt;HeaderComponent  -->
<g id="edge5" class="edge">
<title>ComponentsModule&#45;&gt;HeaderComponent </title>
<path fill="none" stroke="black" stroke-dasharray="5,2" d="M236,-149.91C236,-149.91 236,-168.79 236,-168.79"/>
<polygon fill="black" stroke="black" points="232.5,-168.79 236,-178.79 239.5,-168.79 232.5,-168.79"/>
</g>
<!-- LoadingComponent  -->
<g id="node7" class="node">
<title>LoadingComponent </title>
<polygon fill="#fb8072" stroke="black" points="155.99,-214.8 24.01,-214.8 24.01,-178.8 155.99,-178.8 155.99,-214.8"/>
<text text-anchor="middle" x="90" y="-192.6" font-family="Times,serif" font-size="14.00">LoadingComponent </text>
</g>
<!-- ComponentsModule&#45;&gt;LoadingComponent  -->
<g id="edge6" class="edge">
<title>ComponentsModule&#45;&gt;LoadingComponent </title>
<path fill="none" stroke="black" stroke-dasharray="5,2" d="M170.41,-137.8C124.47,-137.8 71.25,-137.8 71.25,-137.8 71.25,-137.8 71.25,-168.78 71.25,-168.78"/>
<polygon fill="black" stroke="black" points="67.75,-168.78 71.25,-178.78 74.75,-168.78 67.75,-168.78"/>
</g>
</g>
</svg>
