<?xml version="1.0" encoding="UTF-8" standalone="no"?>
<!DOCTYPE svg PUBLIC "-//W3C//DTD SVG 1.1//EN"
 "http://www.w3.org/Graphics/SVG/1.1/DTD/svg11.dtd">
<!-- Generated by graphviz version 5.0.0 (20220707.1540)
 -->
<!-- Title: dependencies Pages: 1 -->
<svg width="2281pt" height="247pt"
 viewBox="0.00 0.00 2281.00 246.80" xmlns="http://www.w3.org/2000/svg" xmlns:xlink="http://www.w3.org/1999/xlink">
<g id="graph0" class="graph" transform="scale(1 1) rotate(0) translate(4 242.8)">
<title>dependencies</title>
<polygon fill="white" stroke="transparent" points="-4,4 -4,-242.8 2277,-242.8 2277,4 -4,4"/>
<text text-anchor="middle" x="1136.5" y="-8.2" font-family="sans-serif" font-size="14.00">dependencies</text>
<g id="clust1" class="cluster">
<title>cluster_AppModule</title>
<polygon fill="none" stroke="black" stroke-dasharray="1,5" points="8,-32.8 8,-230.8 298,-230.8 298,-32.8 8,-32.8"/>
</g>
<g id="clust2" class="cluster">
<title>cluster_AppModule_declarations</title>
<polygon fill="none" stroke="black" points="168,-40.8 168,-92.8 290,-92.8 290,-40.8 168,-40.8"/>
</g>
<g id="clust4" class="cluster">
<title>cluster_AppModule_imports</title>
<polygon fill="none" stroke="black" points="16,-40.8 16,-92.8 160,-92.8 160,-40.8 16,-40.8"/>
</g>
<g id="clust6" class="cluster">
<title>cluster_AppModule_bootstrap</title>
<polygon fill="none" stroke="black" points="96,-170.8 96,-222.8 220,-222.8 220,-170.8 96,-170.8"/>
</g>
<g id="clust14" class="cluster">
<title>cluster_ChaptersModule</title>
<polygon fill="none" stroke="black" stroke-dasharray="1,5" points="306,-32.8 306,-157.8 851,-157.8 851,-32.8 306,-32.8"/>
</g>
<g id="clust15" class="cluster">
<title>cluster_ChaptersModule_declarations</title>
<polygon fill="none" stroke="black" points="492,-40.8 492,-92.8 843,-92.8 843,-40.8 492,-40.8"/>
</g>
<g id="clust18" class="cluster">
<title>cluster_ChaptersModule_imports</title>
<polygon fill="none" stroke="black" points="314,-40.8 314,-92.8 484,-92.8 484,-40.8 314,-40.8"/>
</g>
<g id="clust28" class="cluster">
<title>cluster_ComponentsModule</title>
<polygon fill="none" stroke="black" stroke-dasharray="1,5" points="859,-32.8 859,-230.8 1305,-230.8 1305,-32.8 859,-32.8"/>
</g>
<g id="clust29" class="cluster">
<title>cluster_ComponentsModule_declarations</title>
<polygon fill="none" stroke="black" points="872,-40.8 872,-92.8 1292,-92.8 1292,-40.8 872,-40.8"/>
</g>
<g id="clust34" class="cluster">
<title>cluster_ComponentsModule_exports</title>
<polygon fill="none" stroke="black" points="867,-170.8 867,-222.8 1297,-222.8 1297,-170.8 867,-170.8"/>
</g>
<g id="clust37" class="cluster">
<title>cluster_HomeModule</title>
<polygon fill="none" stroke="black" stroke-dasharray="1,5" points="1313,-32.8 1313,-157.8 1809,-157.8 1809,-32.8 1313,-32.8"/>
</g>
<g id="clust38" class="cluster">
<title>cluster_HomeModule_declarations</title>
<polygon fill="none" stroke="black" points="1483,-40.8 1483,-92.8 1801,-92.8 1801,-40.8 1483,-40.8"/>
</g>
<g id="clust41" class="cluster">
<title>cluster_HomeModule_imports</title>
<polygon fill="none" stroke="black" points="1321,-40.8 1321,-92.8 1475,-92.8 1475,-40.8 1321,-40.8"/>
</g>
<g id="clust51" class="cluster">
<title>cluster_MangaByProviderModule</title>
<polygon fill="none" stroke="black" stroke-dasharray="1,5" points="1817,-32.8 1817,-157.8 2265,-157.8 2265,-32.8 1817,-32.8"/>
</g>
<g id="clust52" class="cluster">
<title>cluster_MangaByProviderModule_declarations</title>
<polygon fill="none" stroke="black" points="2057,-40.8 2057,-92.8 2257,-92.8 2257,-40.8 2057,-40.8"/>
</g>
<g id="clust54" class="cluster">
<title>cluster_MangaByProviderModule_imports</title>
<polygon fill="none" stroke="black" points="1825,-40.8 1825,-92.8 2049,-92.8 2049,-40.8 1825,-40.8"/>
</g>
<!-- AppComponent -->
<g id="node1" class="node">
<title>AppComponent</title>
<polygon fill="#ffffb3" stroke="black" points="281.94,-84.8 176.06,-84.8 176.06,-48.8 281.94,-48.8 281.94,-84.8"/>
<text text-anchor="middle" x="229" y="-62.6" font-family="Times,serif" font-size="14.00">AppComponent</text>
</g>
<!-- AppModule -->
<g id="node2" class="node">
<title>AppModule</title>
<polygon fill="#8dd3c7" stroke="black" points="199.66,-149.8 196.66,-153.8 175.66,-153.8 172.66,-149.8 116.34,-149.8 116.34,-113.8 199.66,-113.8 199.66,-149.8"/>
<text text-anchor="middle" x="158" y="-127.6" font-family="Times,serif" font-size="14.00">AppModule</text>
</g>
<!-- AppComponent&#45;&gt;AppModule -->
<g id="edge1" class="edge">
<title>AppComponent&#45;&gt;AppModule</title>
<path fill="none" stroke="black" d="M188.06,-84.91C188.06,-84.91 188.06,-103.79 188.06,-103.79"/>
<polygon fill="black" stroke="black" points="184.56,-103.79 188.06,-113.79 191.56,-103.79 184.56,-103.79"/>
</g>
<!-- AppComponent  -->
<g id="node4" class="node">
<title>AppComponent </title>
<polygon fill="#80b1d3" stroke="black" points="212.44,-214.8 103.56,-214.8 103.56,-178.8 212.44,-178.8 212.44,-214.8"/>
<text text-anchor="middle" x="158" y="-192.6" font-family="Times,serif" font-size="14.00">AppComponent </text>
</g>
<!-- AppModule&#45;&gt;AppComponent  -->
<g id="edge3" class="edge">
<title>AppModule&#45;&gt;AppComponent </title>
<path fill="none" stroke="black" stroke-dasharray="1,5" d="M158,-149.91C158,-149.91 158,-168.79 158,-168.79"/>
<polygon fill="black" stroke="black" points="154.5,-168.79 158,-178.79 161.5,-168.79 154.5,-168.79"/>
</g>
<!-- AppRoutingModule -->
<g id="node3" class="node">
<title>AppRoutingModule</title>
<polygon fill="#8dd3c7" stroke="black" points="152.28,-84.8 149.28,-88.8 128.28,-88.8 125.28,-84.8 23.72,-84.8 23.72,-48.8 152.28,-48.8 152.28,-84.8"/>
<text text-anchor="middle" x="88" y="-62.6" font-family="Times,serif" font-size="14.00">AppRoutingModule</text>
</g>
<!-- AppRoutingModule&#45;&gt;AppModule -->
<g id="edge2" class="edge">
<title>AppRoutingModule&#45;&gt;AppModule</title>
<path fill="none" stroke="black" d="M134.28,-84.91C134.28,-84.91 134.28,-103.79 134.28,-103.79"/>
<polygon fill="black" stroke="black" points="130.78,-103.79 134.28,-113.79 137.78,-103.79 130.78,-103.79"/>
</g>
<!-- ChaptersComponent -->
<g id="node5" class="node">
<title>ChaptersComponent</title>
<polygon fill="#ffffb3" stroke="black" points="834.6,-84.8 703.4,-84.8 703.4,-48.8 834.6,-48.8 834.6,-84.8"/>
<text text-anchor="middle" x="769" y="-62.6" font-family="Times,serif" font-size="14.00">ChaptersComponent</text>
</g>
<!-- ChaptersModule -->
<g id="node7" class="node">
<title>ChaptersModule</title>
<polygon fill="#8dd3c7" stroke="black" points="647.82,-149.8 644.82,-153.8 623.82,-153.8 620.82,-149.8 538.18,-149.8 538.18,-113.8 647.82,-113.8 647.82,-149.8"/>
<text text-anchor="middle" x="593" y="-127.6" font-family="Times,serif" font-size="14.00">ChaptersModule</text>
</g>
<!-- ChaptersComponent&#45;&gt;ChaptersModule -->
<g id="edge4" class="edge">
<title>ChaptersComponent&#45;&gt;ChaptersModule</title>
<path fill="none" stroke="black" d="M769,-84.83C769,-101.2 769,-122.8 769,-122.8 769,-122.8 657.72,-122.8 657.72,-122.8"/>
<polygon fill="black" stroke="black" points="657.72,-119.3 647.72,-122.8 657.72,-126.3 657.72,-119.3"/>
</g>
<!-- ReadMangaModalComponent -->
<g id="node6" class="node">
<title>ReadMangaModalComponent</title>
<polygon fill="#ffffb3" stroke="black" points="685.53,-84.8 500.47,-84.8 500.47,-48.8 685.53,-48.8 685.53,-84.8"/>
<text text-anchor="middle" x="593" y="-62.6" font-family="Times,serif" font-size="14.00">ReadMangaModalComponent</text>
</g>
<!-- ReadMangaModalComponent&#45;&gt;ChaptersModule -->
<g id="edge5" class="edge">
<title>ReadMangaModalComponent&#45;&gt;ChaptersModule</title>
<path fill="none" stroke="black" d="M593,-84.91C593,-84.91 593,-103.79 593,-103.79"/>
<polygon fill="black" stroke="black" points="589.5,-103.79 593,-113.79 596.5,-103.79 589.5,-103.79"/>
</g>
<!-- ChaptersRoutingModule -->
<g id="node8" class="node">
<title>ChaptersRoutingModule</title>
<polygon fill="#8dd3c7" stroke="black" points="476.44,-84.8 473.44,-88.8 452.44,-88.8 449.44,-84.8 321.56,-84.8 321.56,-48.8 476.44,-48.8 476.44,-84.8"/>
<text text-anchor="middle" x="399" y="-62.6" font-family="Times,serif" font-size="14.00">ChaptersRoutingModule</text>
</g>
<!-- ChaptersRoutingModule&#45;&gt;ChaptersModule -->
<g id="edge6" class="edge">
<title>ChaptersRoutingModule&#45;&gt;ChaptersModule</title>
<path fill="none" stroke="black" d="M399,-84.91C399,-104.14 399,-131.8 399,-131.8 399,-131.8 528.19,-131.8 528.19,-131.8"/>
<polygon fill="black" stroke="black" points="528.19,-135.3 538.19,-131.8 528.19,-128.3 528.19,-135.3"/>
</g>
<!-- FooterComponent -->
<g id="node9" class="node">
<title>FooterComponent</title>
<polygon fill="#ffffb3" stroke="black" points="1283.88,-84.8 1166.12,-84.8 1166.12,-48.8 1283.88,-48.8 1283.88,-84.8"/>
<text text-anchor="middle" x="1225" y="-62.6" font-family="Times,serif" font-size="14.00">FooterComponent</text>
</g>
<!-- ComponentsModule -->
<g id="node12" class="node">
<title>ComponentsModule</title>
<polygon fill="#8dd3c7" stroke="black" points="1152.33,-149.8 1149.33,-153.8 1128.33,-153.8 1125.33,-149.8 1021.67,-149.8 1021.67,-113.8 1152.33,-113.8 1152.33,-149.8"/>
<text text-anchor="middle" x="1087" y="-127.6" font-family="Times,serif" font-size="14.00">ComponentsModule</text>
</g>
<!-- FooterComponent&#45;&gt;ComponentsModule -->
<g id="edge7" class="edge">
<title>FooterComponent&#45;&gt;ComponentsModule</title>
<path fill="none" stroke="black" d="M1245.06,-84.91C1245.06,-104.14 1245.06,-131.8 1245.06,-131.8 1245.06,-131.8 1162.2,-131.8 1162.2,-131.8"/>
<polygon fill="black" stroke="black" points="1162.2,-128.3 1152.2,-131.8 1162.2,-135.3 1162.2,-128.3"/>
</g>
<!-- HeaderComponent -->
<g id="node10" class="node">
<title>HeaderComponent</title>
<polygon fill="#ffffb3" stroke="black" points="1147.75,-84.8 1026.25,-84.8 1026.25,-48.8 1147.75,-48.8 1147.75,-84.8"/>
<text text-anchor="middle" x="1087" y="-62.6" font-family="Times,serif" font-size="14.00">HeaderComponent</text>
</g>
<!-- HeaderComponent&#45;&gt;ComponentsModule -->
<g id="edge8" class="edge">
<title>HeaderComponent&#45;&gt;ComponentsModule</title>
<path fill="none" stroke="black" d="M1087,-84.91C1087,-84.91 1087,-103.79 1087,-103.79"/>
<polygon fill="black" stroke="black" points="1083.5,-103.79 1087,-113.79 1090.5,-103.79 1083.5,-103.79"/>
</g>
<!-- LoadingComponent -->
<g id="node11" class="node">
<title>LoadingComponent</title>
<polygon fill="#ffffb3" stroke="black" points="1007.99,-84.8 880.01,-84.8 880.01,-48.8 1007.99,-48.8 1007.99,-84.8"/>
<text text-anchor="middle" x="944" y="-62.6" font-family="Times,serif" font-size="14.00">LoadingComponent</text>
</g>
<!-- LoadingComponent&#45;&gt;ComponentsModule -->
<g id="edge9" class="edge">
<title>LoadingComponent&#45;&gt;ComponentsModule</title>
<path fill="none" stroke="black" d="M964.5,-84.91C964.5,-104.14 964.5,-131.8 964.5,-131.8 964.5,-131.8 1011.8,-131.8 1011.8,-131.8"/>
<polygon fill="black" stroke="black" points="1011.8,-135.3 1021.8,-131.8 1011.8,-128.3 1011.8,-135.3"/>
</g>
<!-- FooterComponent  -->
<g id="node13" class="node">
<title>FooterComponent </title>
<polygon fill="#fb8072" stroke="black" points="1288.88,-214.8 1167.12,-214.8 1167.12,-178.8 1288.88,-178.8 1288.88,-214.8"/>
<text text-anchor="middle" x="1228" y="-192.6" font-family="Times,serif" font-size="14.00">FooterComponent </text>
</g>
<!-- ComponentsModule&#45;&gt;FooterComponent  -->
<g id="edge10" class="edge">
<title>ComponentsModule&#45;&gt;FooterComponent </title>
<path fill="none" stroke="black" stroke-dasharray="5,2" d="M1152.17,-140.8C1180,-140.8 1206.19,-140.8 1206.19,-140.8 1206.19,-140.8 1206.19,-168.77 1206.19,-168.77"/>
<polygon fill="black" stroke="black" points="1202.69,-168.77 1206.19,-178.77 1209.69,-168.77 1202.69,-168.77"/>
</g>
<!-- HeaderComponent  -->
<g id="node14" class="node">
<title>HeaderComponent </title>
<polygon fill="#fb8072" stroke="black" points="1149.75,-214.8 1024.25,-214.8 1024.25,-178.8 1149.75,-178.8 1149.75,-214.8"/>
<text text-anchor="middle" x="1087" y="-192.6" font-family="Times,serif" font-size="14.00">HeaderComponent </text>
</g>
<!-- ComponentsModule&#45;&gt;HeaderComponent  -->
<g id="edge11" class="edge">
<title>ComponentsModule&#45;&gt;HeaderComponent </title>
<path fill="none" stroke="black" stroke-dasharray="5,2" d="M1087,-149.91C1087,-149.91 1087,-168.79 1087,-168.79"/>
<polygon fill="black" stroke="black" points="1083.5,-168.79 1087,-178.79 1090.5,-168.79 1083.5,-168.79"/>
</g>
<!-- LoadingComponent  -->
<g id="node15" class="node">
<title>LoadingComponent </title>
<polygon fill="#fb8072" stroke="black" points="1006.99,-214.8 875.01,-214.8 875.01,-178.8 1006.99,-178.8 1006.99,-214.8"/>
<text text-anchor="middle" x="941" y="-192.6" font-family="Times,serif" font-size="14.00">LoadingComponent </text>
</g>
<!-- ComponentsModule&#45;&gt;LoadingComponent  -->
<g id="edge12" class="edge">
<title>ComponentsModule&#45;&gt;LoadingComponent </title>
<path fill="none" stroke="black" stroke-dasharray="5,2" d="M1021.41,-140.8C975.47,-140.8 922.25,-140.8 922.25,-140.8 922.25,-140.8 922.25,-168.77 922.25,-168.77"/>
<polygon fill="black" stroke="black" points="918.75,-168.77 922.25,-178.77 925.75,-168.77 918.75,-168.77"/>
</g>
<!-- HomeComponent -->
<g id="node16" class="node">
<title>HomeComponent</title>
<polygon fill="#ffffb3" stroke="black" points="1792.55,-84.8 1677.45,-84.8 1677.45,-48.8 1792.55,-48.8 1792.55,-84.8"/>
<text text-anchor="middle" x="1735" y="-62.6" font-family="Times,serif" font-size="14.00">HomeComponent</text>
</g>
<!-- HomeModule -->
<g id="node18" class="node">
<title>HomeModule</title>
<polygon fill="#8dd3c7" stroke="black" points="1621.77,-149.8 1618.77,-153.8 1597.77,-153.8 1594.77,-149.8 1528.23,-149.8 1528.23,-113.8 1621.77,-113.8 1621.77,-149.8"/>
<text text-anchor="middle" x="1575" y="-127.6" font-family="Times,serif" font-size="14.00">HomeModule</text>
</g>
<!-- HomeComponent&#45;&gt;HomeModule -->
<g id="edge13" class="edge">
<title>HomeComponent&#45;&gt;HomeModule</title>
<path fill="none" stroke="black" d="M1735,-84.91C1735,-104.14 1735,-131.8 1735,-131.8 1735,-131.8 1632.14,-131.8 1632.14,-131.8"/>
<polygon fill="black" stroke="black" points="1632.14,-128.3 1622.14,-131.8 1632.14,-135.3 1632.14,-128.3"/>
</g>
<!-- ProvidersCardsComponent -->
<g id="node17" class="node">
<title>ProvidersCardsComponent</title>
<polygon fill="#ffffb3" stroke="black" points="1658.66,-84.8 1491.34,-84.8 1491.34,-48.8 1658.66,-48.8 1658.66,-84.8"/>
<text text-anchor="middle" x="1575" y="-62.6" font-family="Times,serif" font-size="14.00">ProvidersCardsComponent</text>
</g>
<!-- ProvidersCardsComponent&#45;&gt;HomeModule -->
<g id="edge14" class="edge">
<title>ProvidersCardsComponent&#45;&gt;HomeModule</title>
<path fill="none" stroke="black" d="M1575,-84.91C1575,-84.91 1575,-103.79 1575,-103.79"/>
<polygon fill="black" stroke="black" points="1571.5,-103.79 1575,-113.79 1578.5,-103.79 1571.5,-103.79"/>
</g>
<!-- HomeRoutingModule -->
<g id="node19" class="node">
<title>HomeRoutingModule</title>
<polygon fill="#8dd3c7" stroke="black" points="1467.38,-84.8 1464.38,-88.8 1443.38,-88.8 1440.38,-84.8 1328.62,-84.8 1328.62,-48.8 1467.38,-48.8 1467.38,-84.8"/>
<text text-anchor="middle" x="1398" y="-62.6" font-family="Times,serif" font-size="14.00">HomeRoutingModule</text>
</g>
<!-- HomeRoutingModule&#45;&gt;HomeModule -->
<g id="edge15" class="edge">
<title>HomeRoutingModule&#45;&gt;HomeModule</title>
<path fill="none" stroke="black" d="M1398,-84.83C1398,-101.2 1398,-122.8 1398,-122.8 1398,-122.8 1518.03,-122.8 1518.03,-122.8"/>
<polygon fill="black" stroke="black" points="1518.03,-126.3 1528.03,-122.8 1518.03,-119.3 1518.03,-126.3"/>
</g>
<!-- MangaByProviderComponent -->
<g id="node20" class="node">
<title>MangaByProviderComponent</title>
<polygon fill="#ffffb3" stroke="black" points="2249.26,-84.8 2064.74,-84.8 2064.74,-48.8 2249.26,-48.8 2249.26,-84.8"/>
<text text-anchor="middle" x="2157" y="-62.6" font-family="Times,serif" font-size="14.00">MangaByProviderComponent</text>
</g>
<!-- MangaByProviderModule -->
<g id="node21" class="node">
<title>MangaByProviderModule</title>
<polygon fill="#8dd3c7" stroke="black" points="2128.48,-149.8 2125.48,-153.8 2104.48,-153.8 2101.48,-149.8 1965.52,-149.8 1965.52,-113.8 2128.48,-113.8 2128.48,-149.8"/>
<text text-anchor="middle" x="2047" y="-127.6" font-family="Times,serif" font-size="14.00">MangaByProviderModule</text>
</g>
<!-- MangaByProviderComponent&#45;&gt;MangaByProviderModule -->
<g id="edge16" class="edge">
<title>MangaByProviderComponent&#45;&gt;MangaByProviderModule</title>
<path fill="none" stroke="black" d="M2096.56,-84.91C2096.56,-84.91 2096.56,-103.79 2096.56,-103.79"/>
<polygon fill="black" stroke="black" points="2093.06,-103.79 2096.56,-113.79 2100.06,-103.79 2093.06,-103.79"/>
</g>
<!-- MangaByProviderRoutingModule -->
<g id="node22" class="node">
<title>MangaByProviderRoutingModule</title>
<polygon fill="#8dd3c7" stroke="black" points="2041.1,-84.8 2038.1,-88.8 2017.1,-88.8 2014.1,-84.8 1832.9,-84.8 1832.9,-48.8 2041.1,-48.8 2041.1,-84.8"/>
<text text-anchor="middle" x="1937" y="-62.6" font-family="Times,serif" font-size="14.00">MangaByProviderRoutingModule</text>
</g>
<!-- MangaByProviderRoutingModule&#45;&gt;MangaByProviderModule -->
<g id="edge17" class="edge">
<title>MangaByProviderRoutingModule&#45;&gt;MangaByProviderModule</title>
<path fill="none" stroke="black" d="M2003.28,-84.91C2003.28,-84.91 2003.28,-103.79 2003.28,-103.79"/>
<polygon fill="black" stroke="black" points="1999.78,-103.79 2003.28,-113.79 2006.78,-103.79 1999.78,-103.79"/>
</g>
</g>
</svg>
